<svg xmlns="http://www.w3.org/2000/svg" version="1.1" xmlns:xlink="http://www.w3.org/1999/xlink" xmlns:svgjs="http://svgjs.dev/svgjs" width="2000" height="1500" viewBox="0 0 2000 1500"><rect width="2000" height="1500" fill="#f7f0f0"></rect><g transform="matrix(0.75,0,0,0.75,249.090909090909,534.1272636595326)"><svg viewBox="0 0 396 114" data-background-color="#f7f0f0" preserveAspectRatio="xMidYMid meet" height="575" width="2000" xmlns="http://www.w3.org/2000/svg" xmlns:xlink="http://www.w3.org/1999/xlink"><g id="tight-bounds" transform="matrix(1,0,0,1,0.2400000000000091,0.06548856304530659)"><svg viewBox="0 0 395.52 113.86902287390937" height="113.86902287390937" width="395.52"><g><svg viewBox="0 0 395.52 113.86902287390937" height="113.86902287390937" width="395.52"><g><svg viewBox="0 0 395.52 113.86902287390937" height="113.86902287390937" width="395.52"><g transform="matrix(1,0,0,1,0,54.78000776816919)"><svg viewBox="0 0 395.52 59.08901510574018" height="59.08901510574018" width="395.52"><g id="textblocktransform"><svg viewBox="0 0 395.52 59.08901510574018" height="59.08901510574018" width="395.52" id="textblock"><g><svg viewBox="0 0 395.52 59.08901510574018" height="59.08901510574018" width="395.52"><g transform="matrix(1,0,0,1,0,0)"><svg width="395.52" viewBox="0.85 -38 330.96 49.449999999999996" height="59.08901510574018" data-palette-color="#881228"><path d="M3.35 0L3.35 0Q2.85 0 2.23-0.23 1.6-0.45 1.23-0.85 0.85-1.25 0.85-1.75L0.85-1.75Q0.85-1.95 0.9-2.15L0.9-2.15 11.15-35.4Q11.35-36.15 12.1-36.5 12.85-36.85 13.7-36.85L13.7-36.85Q14.6-36.85 15.35-36.48 16.1-36.1 16.3-35.4L16.3-35.4 26.5-2.15Q26.6-1.95 26.6-1.8L26.6-1.8Q26.6-1.3 26.18-0.9 25.75-0.5 25.15-0.25 24.55 0 24 0L24 0Q23.45 0 23.05-0.23 22.65-0.45 22.5-0.95L22.5-0.95 20.25-8.4 7.1-8.4 4.95-0.95Q4.8-0.45 4.38-0.23 3.95 0 3.35 0ZM13.7-30.65L8.1-11.85 19.3-11.85 13.7-30.65ZM32.4 0L32.4 0Q31.5 0 30.92-0.48 30.35-0.95 30.35-1.5L30.35-1.5 30.35-22.25Q30.35-22.9 30.92-23.3 31.5-23.7 32.4-23.7L32.4-23.7Q33.2-23.7 33.75-23.3 34.3-22.9 34.3-22.25L34.3-22.25 34.3-20.2Q35.1-21.65 36.8-22.83 38.5-24 41-24L41-24Q43.4-24 45.4-22.68 47.4-21.35 48.6-19.2 49.8-17.05 49.8-14.4L49.8-14.4 49.8-1.5Q49.8-0.75 49.15-0.38 48.5 0 47.7 0L47.7 0Q46.95 0 46.3-0.38 45.65-0.75 45.65-1.5L45.65-1.5 45.65-14.4Q45.65-15.85 44.87-17.2 44.1-18.55 42.8-19.4 41.5-20.25 39.95-20.25L39.95-20.25Q38.6-20.25 37.35-19.53 36.1-18.8 35.3-17.53 34.5-16.25 34.5-14.4L34.5-14.4 34.5-1.5Q34.5-0.95 33.87-0.48 33.25 0 32.4 0ZM52.8 11.45L52.8 11.45Q51.6 11.45 51.1 10.88 50.6 10.3 50.6 9.65L50.6 9.65Q50.6 8.8 51.12 8.3 51.65 7.8 52.3 7.8L52.3 7.8Q53.75 7.8 54.42 7.05 55.1 6.3 55.27 4.98 55.45 3.65 55.45 2L55.45 2 55.45-22.25Q55.45-22.9 56.05-23.3 56.65-23.7 57.5-23.7L57.5-23.7Q58.4-23.7 59-23.3 59.6-22.9 59.6-22.25L59.6-22.25 59.6 2Q59.6 4.75 58.9 6.9 58.2 9.05 56.7 10.25 55.2 11.45 52.8 11.45ZM57.5-30.2L57.5-30.2Q56.45-30.2 55.67-30.93 54.9-31.65 54.9-32.6L54.9-32.6Q54.9-33.55 55.67-34.25 56.45-34.95 57.5-34.95L57.5-34.95Q58.6-34.95 59.32-34.25 60.05-33.55 60.05-32.6L60.05-32.6Q60.05-31.65 59.32-30.93 58.6-30.2 57.5-30.2ZM70.74 0.4L70.74 0.4Q67.94 0.4 65.97-1.23 63.99-2.85 63.99-6.25L63.99-6.25Q63.99-9 65.49-10.53 66.99-12.05 69.62-12.63 72.24-13.2 75.69-13.2L75.69-13.2 78.09-13.2 78.09-14.25Q78.09-15.75 77.54-17.18 76.99-18.6 75.82-19.53 74.64-20.45 72.59-20.45L72.59-20.45Q70.84-20.45 69.82-20.1 68.79-19.75 68.19-19.38 67.59-19 67.14-19L67.14-19Q66.39-19 65.99-19.73 65.59-20.45 65.59-21.1L65.59-21.1Q65.59-21.9 66.69-22.55 67.79-23.2 69.44-23.6 71.09-24 72.69-24L72.69-24Q76.19-24 78.29-22.6 80.39-21.2 81.32-19 82.24-16.8 82.24-14.3L82.24-14.3 82.24-1.5Q82.24-0.9 81.67-0.45 81.09 0 80.19 0L80.19 0Q79.39 0 78.84-0.45 78.29-0.9 78.29-1.5L78.29-1.5 78.29-3.5Q76.99-2 75.14-0.8 73.29 0.4 70.74 0.4ZM72.04-2.95L72.04-2.95Q73.49-2.95 74.87-3.75 76.24-4.55 77.17-5.75 78.09-6.95 78.09-8.05L78.09-8.05 78.09-10.65 76.34-10.65Q74.24-10.65 72.37-10.4 70.49-10.15 69.34-9.33 68.19-8.5 68.19-6.7L68.19-6.7Q68.19-4.75 69.29-3.85 70.39-2.95 72.04-2.95ZM89.94 0L89.94 0Q89.04 0 88.47-0.48 87.89-0.95 87.89-1.5L87.89-1.5 87.89-22.25Q87.89-22.9 88.47-23.3 89.04-23.7 89.94-23.7L89.94-23.7Q90.74-23.7 91.29-23.3 91.84-22.9 91.84-22.25L91.84-22.25 91.84-20.2Q92.64-21.65 94.34-22.83 96.04-24 98.54-24L98.54-24Q100.94-24 102.94-22.68 104.94-21.35 106.14-19.2 107.34-17.05 107.34-14.4L107.34-14.4 107.34-1.5Q107.34-0.75 106.69-0.38 106.04 0 105.24 0L105.24 0Q104.49 0 103.84-0.38 103.19-0.75 103.19-1.5L103.19-1.5 103.19-14.4Q103.19-15.85 102.42-17.2 101.64-18.55 100.34-19.4 99.04-20.25 97.49-20.25L97.49-20.25Q96.14-20.25 94.89-19.53 93.64-18.8 92.84-17.53 92.04-16.25 92.04-14.4L92.04-14.4 92.04-1.5Q92.04-0.95 91.42-0.48 90.79 0 89.94 0ZM118.19 0.4L118.19 0.4Q115.39 0.4 113.41-1.23 111.44-2.85 111.44-6.25L111.44-6.25Q111.44-9 112.94-10.53 114.44-12.05 117.06-12.63 119.69-13.2 123.14-13.2L123.14-13.2 125.54-13.2 125.54-14.25Q125.54-15.75 124.99-17.18 124.44-18.6 123.26-19.53 122.09-20.45 120.04-20.45L120.04-20.45Q118.29-20.45 117.26-20.1 116.24-19.75 115.64-19.38 115.04-19 114.59-19L114.59-19Q113.84-19 113.44-19.73 113.04-20.45 113.04-21.1L113.04-21.1Q113.04-21.9 114.14-22.55 115.24-23.2 116.89-23.6 118.54-24 120.14-24L120.14-24Q123.64-24 125.74-22.6 127.84-21.2 128.76-19 129.69-16.8 129.69-14.3L129.69-14.3 129.69-1.5Q129.69-0.9 129.11-0.45 128.54 0 127.64 0L127.64 0Q126.84 0 126.29-0.45 125.74-0.9 125.74-1.5L125.74-1.5 125.74-3.5Q124.44-2 122.59-0.8 120.74 0.4 118.19 0.4ZM119.49-2.95L119.49-2.95Q120.94-2.95 122.31-3.75 123.69-4.55 124.61-5.75 125.54-6.95 125.54-8.05L125.54-8.05 125.54-10.65 123.79-10.65Q121.69-10.65 119.81-10.4 117.94-10.15 116.79-9.33 115.64-8.5 115.64-6.7L115.64-6.7Q115.64-4.75 116.74-3.85 117.84-2.95 119.49-2.95ZM155.78 0.3L155.78 0.3Q154.93 0.3 154.16-0.08 153.38-0.45 153.18-1.15L153.18-1.15 143.28-34.4Q143.23-34.6 143.23-34.85L143.23-34.85Q143.23-35.35 143.63-35.73 144.03-36.1 144.61-36.33 145.18-36.55 145.73-36.55L145.73-36.55Q146.28-36.55 146.76-36.33 147.23-36.1 147.33-35.6L147.33-35.6 155.78-5.9 160.53-24.2Q160.73-24.9 161.36-25.2 161.98-25.5 162.68-25.5L162.68-25.5Q163.43-25.5 164.03-25.2 164.63-24.9 164.78-24.2L164.78-24.2 169.58-5.9 178.03-35.6Q178.18-36.1 178.61-36.33 179.03-36.55 179.58-36.55L179.58-36.55Q180.18-36.55 180.76-36.33 181.33-36.1 181.73-35.73 182.13-35.35 182.13-34.85L182.13-34.85Q182.13-34.6 182.03-34.4L182.03-34.4 172.23-1.15Q171.98-0.45 171.23-0.08 170.48 0.3 169.58 0.3L169.58 0.3Q168.73 0.3 167.96-0.08 167.18-0.45 167.03-1.15L167.03-1.15 162.68-17.65 158.38-1.15Q158.18-0.45 157.43-0.08 156.68 0.3 155.78 0.3ZM193.73 0.4L193.73 0.4Q190.48 0.4 187.98-0.83 185.48-2.05 184.03-4.23 182.58-6.4 182.58-9.3L182.58-9.3 182.58-14.55Q182.58-17.1 183.96-19.25 185.33-21.4 187.58-22.7 189.83-24 192.53-24L192.53-24Q195.13-24 197.31-22.8 199.48-21.6 200.81-19.55 202.13-17.5 202.13-14.8L202.13-14.8Q202.13-12.8 201.48-11.93 200.83-11.05 199.83-10.85 198.83-10.65 197.73-10.65L197.73-10.65 186.73-10.65 186.73-9.15Q186.73-6.35 188.73-4.73 190.73-3.1 193.88-3.1L193.88-3.1Q195.73-3.1 196.83-3.6 197.93-4.1 198.63-4.58 199.33-5.05 199.88-5.05L199.88-5.05Q200.43-5.05 200.81-4.73 201.18-4.4 201.38-3.95 201.58-3.5 201.58-3.15L201.58-3.15Q201.58-2.5 200.63-1.68 199.68-0.85 197.91-0.23 196.13 0.4 193.73 0.4ZM186.73-15.25L186.73-13.45 195.98-13.45Q197.33-13.45 197.76-13.78 198.18-14.1 198.18-15.05L198.18-15.05Q198.18-16.55 197.46-17.82 196.73-19.1 195.43-19.9 194.13-20.7 192.48-20.7L192.48-20.7Q190.93-20.7 189.63-19.98 188.33-19.25 187.53-18 186.73-16.75 186.73-15.25L186.73-15.25ZM214.68 0.4L214.68 0.4Q212.33 0.4 210.3-0.98 208.28-2.35 207.05-4.58 205.83-6.8 205.83-9.3L205.83-9.3 205.83-14.4Q205.83-17.05 207.05-19.2 208.28-21.35 210.3-22.68 212.33-24 214.78-24L214.78-24Q217.18-24 218.85-22.83 220.53-21.65 221.33-20.2L221.33-20.2 221.33-36.55Q221.33-37.2 221.95-37.6 222.58-38 223.48-38L223.48-38Q224.38-38 224.93-37.6 225.48-37.2 225.48-36.55L225.48-36.55 225.48-1.5Q225.48-0.95 224.93-0.48 224.38 0 223.48 0L223.48 0Q222.68 0 222.1-0.48 221.53-0.95 221.53-1.5L221.53-1.5 221.53-3.5Q220.78-1.95 218.88-0.78 216.98 0.4 214.68 0.4ZM215.68-3.35L215.68-3.35Q217.28-3.35 218.55-4.23 219.83-5.1 220.58-6.2 221.33-7.3 221.33-7.95L221.33-7.95 221.33-14.4Q221.33-16.25 220.5-17.53 219.68-18.8 218.38-19.53 217.08-20.25 215.73-20.25L215.73-20.25Q214.13-20.25 212.83-19.4 211.53-18.55 210.75-17.2 209.98-15.85 209.98-14.4L209.98-14.4 209.98-9.3Q209.98-7.85 210.75-6.45 211.53-5.05 212.83-4.2 214.13-3.35 215.68-3.35ZM238.23 0.4L238.23 0.4Q235.83 0.4 233.98-0.23 232.13-0.85 231.08-1.7 230.03-2.55 230.03-3.4L230.03-3.4Q230.03-3.8 230.23-4.23 230.43-4.65 230.75-4.98 231.08-5.3 231.48-5.3L231.48-5.3Q232.08-5.3 232.78-4.73 233.48-4.15 234.68-3.55 235.88-2.95 238.13-2.95L238.13-2.95Q240.78-2.95 241.83-3.93 242.88-4.9 242.88-6.1L242.88-6.1Q242.88-7.65 241.98-8.47 241.08-9.3 239.68-9.78 238.28-10.25 236.73-10.7 235.18-11.15 233.78-11.83 232.38-12.5 231.5-13.73 230.63-14.95 230.63-17L230.63-17Q230.63-18.65 231.43-20.25 232.23-21.85 234.03-22.93 235.83-24 238.83-24L238.83-24Q240.58-24 242.2-23.63 243.83-23.25 244.85-22.63 245.88-22 245.88-21.3L245.88-21.3Q245.88-21 245.68-20.5 245.48-20 245.13-19.6 244.78-19.2 244.23-19.2L244.23-19.2Q243.83-19.2 243.1-19.58 242.38-19.95 241.35-20.3 240.33-20.65 238.88-20.65L238.88-20.65Q237.23-20.65 236.23-20.08 235.23-19.5 234.78-18.73 234.33-17.95 234.33-17.15L234.33-17.15Q234.33-15.9 235.2-15.2 236.08-14.5 237.5-14.08 238.93-13.65 240.48-13.23 242.03-12.8 243.43-12.03 244.83-11.25 245.73-9.9 246.63-8.55 246.63-6.3L246.63-6.3Q246.63-3.25 244.43-1.43 242.23 0.4 238.23 0.4ZM270.02 0.3L270.02 0.3Q266.77 0.3 264.32-0.85 261.87-2 260.5-4.08 259.12-6.15 259.12-8.85L259.12-8.85Q259.12-10.05 259.67-10.48 260.22-10.9 261.22-10.9L261.22-10.9Q262.02-10.9 262.65-10.58 263.27-10.25 263.32-9.45L263.32-9.45Q263.37-7.75 264.12-6.38 264.87-5 266.32-4.25 267.77-3.5 269.87-3.5L269.87-3.5Q273.02-3.5 274.75-5.23 276.47-6.95 276.47-10.6L276.47-10.6 276.47-32.75 269.97-32.75Q269.27-32.75 268.9-33.35 268.52-33.95 268.52-34.7L268.52-34.7Q268.52-35.35 268.85-35.95 269.17-36.55 269.97-36.55L269.97-36.55 278.77-36.55Q279.52-36.55 280.1-36.18 280.67-35.8 280.67-35.05L280.67-35.05 280.67-10.6Q280.67-6.65 279.25-4.25 277.82-1.85 275.4-0.78 272.97 0.3 270.02 0.3ZM288.92 0L288.92 0Q288.02 0 287.44-0.48 286.87-0.95 286.87-1.5L286.87-1.5 286.87-22.25Q286.87-22.9 287.44-23.3 288.02-23.7 288.92-23.7L288.92-23.7Q289.77-23.7 290.39-23.3 291.02-22.9 291.02-22.25L291.02-22.25 291.02-1.5Q291.02-0.95 290.39-0.48 289.77 0 288.92 0ZM288.92-30.2L288.92-30.2Q287.82-30.2 287.07-30.93 286.32-31.65 286.32-32.6L286.32-32.6Q286.32-33.55 287.07-34.25 287.82-34.95 288.92-34.95L288.92-34.95Q289.97-34.95 290.72-34.25 291.47-33.55 291.47-32.6L291.47-32.6Q291.47-31.65 290.72-30.93 289.97-30.2 288.92-30.2ZM306.62 0L305.07 0Q301.02 0 298.89-1.8 296.77-3.6 296.77-7.55L296.77-7.55 296.77-33.3Q296.77-33.95 297.42-34.35 298.07-34.75 298.82-34.75L298.82-34.75Q299.62-34.75 300.27-34.35 300.92-33.95 300.92-33.3L300.92-33.3 300.92-23.7 307.22-23.7Q307.82-23.7 308.14-23.2 308.47-22.7 308.47-22.05L308.47-22.05Q308.47-21.4 308.14-20.93 307.82-20.45 307.22-20.45L307.22-20.45 300.92-20.45 300.92-7.55Q300.92-5.4 301.84-4.53 302.77-3.65 305.07-3.65L305.07-3.65 306.62-3.65Q307.52-3.65 307.97-3.1 308.42-2.55 308.42-1.85L308.42-1.85Q308.42-1.15 307.97-0.58 307.52 0 306.62 0L306.62 0ZM314.41 0L314.41 0Q313.51 0 312.94-0.48 312.36-0.95 312.36-1.5L312.36-1.5 312.36-36.55Q312.36-37.2 312.94-37.6 313.51-38 314.41-38L314.41-38Q315.26-38 315.89-37.6 316.51-37.2 316.51-36.55L316.51-36.55 316.51-20.2Q317.31-21.65 318.94-22.83 320.56-24 323.01-24L323.01-24Q325.41-24 327.41-22.68 329.41-21.35 330.61-19.2 331.81-17.05 331.81-14.4L331.81-14.4 331.81-1.5Q331.81-0.75 331.16-0.38 330.51 0 329.71 0L329.71 0Q328.96 0 328.31-0.38 327.66-0.75 327.66-1.5L327.66-1.5 327.66-14.4Q327.66-15.85 326.86-17.2 326.06-18.55 324.79-19.4 323.51-20.25 321.96-20.25L321.96-20.25Q320.61-20.25 319.36-19.53 318.11-18.8 317.31-17.53 316.51-16.25 316.51-14.4L316.51-14.4 316.51-1.5Q316.51-0.95 315.89-0.48 315.26 0 314.41 0Z" opacity="1" transform="matrix(1,0,0,1,0,0)" fill="#881228" class="wordmark-text-0" data-fill-palette-color="primary" id="text-0"></path></svg></g></svg></g></svg></g></svg></g><g transform="matrix(1,0,0,1,177.34474528096675,0)"><svg viewBox="0 0 40.830509438066464 40.83050943806647" height="40.83050943806647" width="40.830509438066464"><g><svg></svg></g><g id="icon-0"><svg viewBox="0 0 40.830509438066464 40.83050943806647" height="40.83050943806647" width="40.830509438066464"><g><path transform="scale(0.40831,0.40831)" d="M30 100c-16.569 0-30-13.431-30-30v-40c0-16.569 13.431-30 30-30h40c16.569 0 30 13.431 30 30v40c0 16.569-13.431 30-30 30z" fill="#ed2647" fill-rule="nonzero" stroke="none" stroke-width="1" stroke-linecap="butt" stroke-linejoin="miter" stroke-miterlimit="10" stroke-dasharray="" stroke-dashoffset="0" font-family="none" font-weight="none" font-size="none" text-anchor="none" style="mix-blend-mode: normal" data-fill-palette-color="accent"></path></g><g transform="matrix(1,0,0,1,8.166101887613292,8.930889302950776)"><svg viewBox="0 0 24.49830566283988 22.96873083216492" height="22.96873083216492" width="24.49830566283988"><g><svg xmlns="http://www.w3.org/2000/svg" xmlns:xlink="http://www.w3.org/1999/xlink" version="1.1" x="0" y="0" viewBox="7.366646335072802 10.027999999999997 85.26670732985438 79.94300000000001" enable-background="new 0 0 100 100" xml:space="preserve" height="22.96873083216492" width="24.49830566283988" class="icon-z$-0" data-fill-palette-color="quaternary" id="z$-0"><g fill="#ffffff" data-fill-palette-color="quaternary"><g fill="#ffffff" data-fill-palette-color="quaternary"><g fill="#ffffff" data-fill-palette-color="quaternary"><path fill="none" d="M89.695 20.522l0.001-0.074c0.001-0.047 0.003-0.094 0.006-0.14 0-4.053-3.479-7.369-7.753-7.369-4.276 0-7.756 3.316-7.756 7.391h-2.91c0-4.074-3.479-7.391-7.754-7.391s-7.753 3.316-7.753 7.391l-0.016 0.218c-0.015 0.101-1.273 11.229 16.968 23.447C89.778 32.587 89.861 22.524 89.7 20.597L89.695 20.522z"></path><path d="M92.609 20.461c0.002-0.044 0.004-0.087 0.004-0.132 0-5.68-4.784-10.301-10.664-10.301-3.924 0-7.357 2.056-9.211 5.11-1.852-3.055-5.287-5.11-9.209-5.11-5.848 0-10.61 4.57-10.663 10.208-0.162 1.438-0.892 13.721 19.067 26.721l0.795 0.517 0.794-0.517C92.466 34.62 92.783 22.952 92.609 20.461zM72.729 43.995C54.487 31.777 55.746 20.648 55.761 20.547l0.016-0.218c0-4.074 3.478-7.391 7.753-7.391s7.754 3.316 7.754 7.391h2.91c0-4.074 3.479-7.391 7.756-7.391 4.274 0 7.753 3.316 7.753 7.369-0.003 0.046-0.005 0.093-0.006 0.14l-0.001 0.074 0.005 0.075C89.861 22.524 89.778 32.587 72.729 43.995z" fill="#ffffff" data-fill-palette-color="quaternary"></path></g><path d="M47.455 19.907c0.001-0.054 0.007-0.104 0.007-0.158 0-5.311-4.483-9.616-10.011-9.616-5.53 0-10.014 4.306-10.014 9.616 0-5.311-4.483-9.616-10.012-9.616-5.53 0-10.011 4.306-10.011 9.616 0 0-2.001 13.285 20.012 27.622C48.161 33.867 47.592 21.538 47.455 19.907z" fill="#ffffff" data-fill-palette-color="quaternary"></path></g><g fill="#ffffff" data-fill-palette-color="quaternary"><g fill="#ffffff" data-fill-palette-color="quaternary"><path fill="none" d="M10.305 63.02l-0.001-0.074c-0.001-0.047-0.003-0.094-0.006-0.141 0-4.053 3.479-7.369 7.753-7.369 4.276 0 7.756 3.316 7.756 7.391h2.91c0-4.074 3.479-7.391 7.754-7.391s7.753 3.316 7.753 7.391l0.016 0.219c0.015 0.1 1.273 11.229-16.968 23.447C10.222 75.084 10.139 65.021 10.3 63.094L10.305 63.02z"></path><path d="M26.478 89.455l0.794 0.516 0.795-0.516c19.959-13 19.229-25.283 19.067-26.721-0.053-5.639-4.815-10.209-10.663-10.209-3.922 0-7.357 2.057-9.209 5.111-1.854-3.055-5.287-5.111-9.211-5.111-5.88 0-10.664 4.621-10.664 10.301 0 0.045 0.002 0.088 0.004 0.133C7.217 65.449 7.534 77.117 26.478 89.455zM10.3 63.094l0.005-0.074-0.001-0.074c-0.001-0.047-0.003-0.094-0.006-0.141 0-4.053 3.479-7.369 7.753-7.369 4.276 0 7.756 3.316 7.756 7.391h2.91c0-4.074 3.479-7.391 7.754-7.391s7.753 3.316 7.753 7.391l0.016 0.219c0.015 0.1 1.273 11.229-16.968 23.447C10.222 75.084 10.139 65.021 10.3 63.094z" fill="#ffffff" data-fill-palette-color="quaternary"></path></g><path d="M52.545 62.404c-0.001-0.055-0.007-0.104-0.007-0.158 0-5.311 4.483-9.617 10.011-9.617 5.53 0 10.014 4.307 10.014 9.617 0-5.311 4.483-9.617 10.012-9.617 5.53 0 10.011 4.307 10.011 9.617 0 0 2.001 13.285-20.012 27.621C51.839 76.363 52.408 64.035 52.545 62.404z" fill="#ffffff" data-fill-palette-color="quaternary"></path></g></g></svg></g></svg></g></svg></g></svg></g><g></g></svg></g></svg></g><defs></defs></svg><rect width="395.52" height="113.86902287390937" fill="none" stroke="none" visibility="hidden"></rect></g></svg></g></svg>